<?xml version="1.0" standalone="no"?>
<!DOCTYPE svg PUBLIC "-//W3C//DTD SVG 20010904//EN"
 "http://www.w3.org/TR/2001/REC-SVG-20010904/DTD/svg10.dtd">
<svg version="1.0" xmlns="http://www.w3.org/2000/svg"
 width="1280.000000pt" height="1280.000000pt" viewBox="0 0 1280.000000 1280.000000"
 preserveAspectRatio="xMidYMid meet">
<metadata>
Created by potrace 1.15, written by Peter Selinger 2001-2017
</metadata>
<g transform="translate(0.000000,1280.000000) scale(0.100000,-0.100000)"
fill="#000000" stroke="none">
<path d="M8816 11922 c-76 -163 -146 -304 -155 -313 -27 -27 -189 -110 -195
-100 -3 5 -35 78 -71 162 -58 134 -235 492 -253 511 -4 4 -38 -12 -76 -35
l-70 -42 -38 -190 c-21 -104 -48 -208 -59 -230 -11 -22 -42 -150 -69 -284 -27
-134 -51 -246 -54 -249 -3 -3 -54 -7 -112 -10 -84 -4 -116 -1 -158 13 l-53 18
-94 -50 c-52 -28 -115 -54 -140 -58 -43 -6 -50 -12 -93 -70 -29 -40 -46 -73
-46 -91 0 -28 -2 -29 -47 -29 -27 0 -59 -4 -73 -8 -24 -8 -26 -4 -75 122 -39
100 -54 129 -67 128 -10 -1 -18 -7 -18 -13 0 -6 -29 -121 -64 -255 -61 -230
-71 -257 -166 -464 l-102 -220 -104 -505 c-117 -575 -159 -759 -173 -773 -6
-6 -55 31 -143 109 -73 64 -141 124 -150 132 -16 13 -27 10 -102 -23 -67 -31
-89 -46 -103 -72 -10 -18 -20 -33 -23 -33 -3 0 -31 51 -63 113 -46 91 -85 200
-207 582 l-151 470 -101 170 c-56 94 -161 268 -234 388 l-132 218 -270 -448
-270 -448 -56 -270 c-49 -235 -88 -377 -117 -436 -8 -15 -15 -15 -81 -3 l-72
14 -43 -42 c-40 -39 -47 -42 -107 -46 l-64 -4 -70 58 c-116 98 -171 126 -250
130 -37 1 -91 8 -121 13 -80 16 -88 14 -134 -28 -41 -38 -44 -39 -141 -46
l-98 -8 -45 -69 c-34 -53 -42 -72 -33 -83 9 -10 -1 -20 -47 -48 -32 -20 -82
-60 -110 -89 l-53 -53 14 -80 c16 -90 22 -98 130 -152 52 -26 76 -33 101 -29
17 4 92 11 165 16 126 10 136 12 163 38 15 14 33 45 38 68 7 29 18 45 35 53
35 16 150 14 235 -4 81 -17 87 -15 114 45 l18 41 28 -27 c16 -16 32 -46 39
-75 7 -28 21 -55 33 -64 19 -14 20 -15 2 -42 -16 -23 -422 -592 -431 -602 -2
-2 -65 -19 -141 -37 l-138 -34 -80 -80 -81 -80 -259 -30 c-143 -16 -293 -30
-332 -30 -70 0 -73 -1 -87 -29 -12 -23 -24 -30 -61 -35 -35 -6 -45 -11 -45
-26 0 -19 -8 -22 -95 -36 -97 -15 -308 -66 -328 -78 -12 -7 -67 -19 -122 -25
-55 -7 -205 -34 -334 -59 l-234 -47 -118 -225 c-65 -124 -118 -230 -119 -235
0 -6 93 -61 207 -122 191 -102 207 -113 221 -148 14 -34 13 -40 -1 -65 -22
-37 -22 -36 13 -44 17 -3 30 -11 30 -18 0 -8 -54 -67 -120 -133 -66 -66 -119
-125 -118 -131 2 -6 202 -202 444 -435 l441 -424 499 -583 499 -582 95 6 c52
3 104 8 116 10 20 5 25 -11 93 -290 40 -162 78 -299 84 -304 7 -6 172 -97 367
-202 195 -105 360 -197 366 -203 6 -7 19 -32 28 -57 10 -25 104 -198 208 -385
l191 -340 116 -122 c64 -67 246 -255 405 -417 l288 -296 47 -200 c27 -110 50
-202 52 -204 2 -2 48 -35 102 -75 l97 -71 0 -264 0 -265 53 -10 c28 -6 159
-29 289 -51 l237 -40 201 155 c111 85 205 155 209 155 3 0 60 -36 125 -80 66
-43 123 -77 126 -75 4 2 38 72 76 155 60 130 72 150 89 146 11 -2 45 -8 76
-11 l56 -7 7 -66 c3 -37 6 -100 6 -141 0 -54 3 -72 13 -68 95 39 444 202 449
211 4 6 13 35 19 64 7 28 15 52 19 52 3 0 53 -16 111 -35 57 -20 109 -34 115
-33 9 2 393 457 481 569 11 13 -4 41 -88 169 -55 84 -98 158 -96 164 3 6 64
83 136 171 99 120 217 243 477 496 l346 336 161 315 162 315 320 315 320 316
263 32 263 32 230 140 230 140 308 327 c219 233 320 348 350 398 l42 71 72 6
c40 3 163 8 275 12 l202 7 0 26 c0 14 -14 222 -30 461 -16 239 -30 461 -30
493 0 48 22 127 116 419 l116 360 -78 115 c-44 63 -83 118 -89 121 -37 23
-212 67 -416 103 l-239 43 0 77 0 78 -32 6 c-18 2 -139 19 -268 35 -322 42
-295 35 -313 80 -14 37 -16 38 -83 49 -160 25 -268 32 -415 29 l-156 -3 -42
63 c-33 50 -64 131 -155 400 -144 427 -170 501 -244 697 -33 88 -68 193 -76
233 -16 70 -276 1655 -352 2137 l-37 240 -146 153 c-122 127 -152 165 -184
230 -35 72 -86 151 -97 152 -3 0 -67 -134 -144 -298z m-1390 -1334 l57 -22 36
21 c32 19 43 20 89 11 45 -9 52 -14 52 -35 0 -13 -6 -34 -14 -46 -7 -12 -16
-44 -20 -72 -9 -76 -279 -861 -288 -838 -4 10 -44 162 -87 338 -44 176 -92
348 -106 383 -14 35 -23 67 -20 72 4 6 23 10 43 10 32 0 45 8 89 53 29 28 61
73 72 100 11 26 25 47 30 47 5 0 35 -10 67 -22z"/>
<path d="M1470 11768 l-185 -81 -70 -85 c-38 -47 -98 -121 -133 -163 l-63 -77
-25 -180 -25 -179 106 -259 c58 -142 109 -264 113 -270 4 -6 50 -36 102 -66
76 -45 140 -70 313 -126 l218 -70 184 80 185 81 127 160 128 161 11 81 c7 44
18 132 25 196 l12 117 -117 258 -118 259 -110 85 c-61 47 -116 88 -123 92 -6
4 -81 19 -166 33 -85 14 -165 27 -179 30 -17 3 -87 -23 -210 -77z"/>
<path d="M5926 10540 c-67 -45 -146 -132 -146 -162 0 -27 52 -74 90 -82 36 -7
66 6 95 39 24 28 131 50 143 30 14 -26 86 -47 152 -46 98 3 119 34 85 130 -33
94 -102 106 -188 34 -33 -27 -43 -24 -52 17 -8 37 -58 80 -93 79 -15 0 -53
-18 -86 -39z"/>
<path d="M10334 10407 c-73 -45 -132 -92 -154 -120 -10 -13 -39 -32 -64 -41
-35 -14 -56 -32 -96 -85 -31 -43 -50 -79 -50 -96 0 -71 102 -135 218 -135 63
0 66 1 108 44 24 24 44 52 44 64 0 19 5 20 83 15 69 -4 90 -2 131 16 53 23 60
21 72 -26 5 -18 21 -27 78 -43 39 -12 84 -25 100 -31 59 -19 142 -11 220 22
l74 31 10 56 c17 89 6 123 -55 171 -29 23 -53 46 -53 51 0 22 -35 39 -96 45
-59 7 -70 5 -117 -20 -29 -15 -66 -41 -83 -57 l-32 -30 -7 31 c-4 21 -21 41
-51 63 -24 17 -52 46 -63 63 -16 28 -26 33 -72 38 -82 10 -90 9 -145 -26z"/>
</g>
</svg>
